<svg xmlns="http://www.w3.org/2000/svg" width="24" height="240">
  <text x="0" y="14" id="test-p-0" font-family="Unifont" font-size="16" fill="#000000" font-weight="400" xml:space="preserve">
    <tspan x="0.0 8.0 16.0">Pne</tspan>
  </text>
  <text x="0" y="30" id="test-p-0" font-family="Unifont" font-size="16" fill="#000000" font-weight="400" xml:space="preserve">
    <tspan x="0.0 8.0 16.0">umo</tspan>
  </text>
  <text x="0" y="46" id="test-p-0" font-family="Unifont" font-size="16" fill="#000000" font-weight="400" xml:space="preserve">
    <tspan x="0.0 8.0 16.0">nou</tspan>
  </text>
  <text x="0" y="62" id="test-p-0" font-family="Unifont" font-size="16" fill="#000000" font-weight="400" xml:space="preserve">
    <tspan x="0.0 8.0 16.0">ltr</tspan>
  </text>
  <text x="0" y="78" id="test-p-0" font-family="Unifont" font-size="16" fill="#000000" font-weight="400" xml:space="preserve">
    <tspan x="0.0 8.0 16.0">ami</tspan>
  </text>
  <text x="0" y="94" id="test-p-0" font-family="Unifont" font-size="16" fill="#000000" font-weight="400" xml:space="preserve">
    <tspan x="0.0 8.0 16.0">cro</tspan>
  </text>
  <text x="0" y="110" id="test-p-0" font-family="Unifont" font-size="16" fill="#000000" font-weight="400" xml:space="preserve">
    <tspan x="0.0 8.0 16.0">sco</tspan>
  </text>
  <text x="0" y="126" id="test-p-0" font-family="Unifont" font-size="16" fill="#000000" font-weight="400" xml:space="preserve">
    <tspan x="0.0 8.0 16.0">pic</tspan>
  </text>
  <text x="0" y="142" id="test-p-0" font-family="Unifont" font-size="16" fill="#000000" font-weight="400" xml:space="preserve">
    <tspan x="0.0 8.0 16.0">sil</tspan>
  </text>
  <text x="0" y="158" id="test-p-0" font-family="Unifont" font-size="16" fill="#000000" font-weight="400" xml:space="preserve">
    <tspan x="0.0 8.0 16.0">ico</tspan>
  </text>
  <text x="0" y="174" id="test-p-0" font-family="Unifont" font-size="16" fill="#000000" font-weight="400" xml:space="preserve">
    <tspan x="0.0 8.0 16.0">vol</tspan>
  </text>
  <text x="0" y="190" id="test-p-0" font-family="Unifont" font-size="16" fill="#000000" font-weight="400" xml:space="preserve">
    <tspan x="0.0 8.0 16.0">can</tspan>
  </text>
  <text x="0" y="206" id="test-p-0" font-family="Unifont" font-size="16" fill="#000000" font-weight="400" xml:space="preserve">
    <tspan x="0.0 8.0 16.0">oco</tspan>
  </text>
  <text x="0" y="222" id="test-p-0" font-family="Unifont" font-size="16" fill="#000000" font-weight="400" xml:space="preserve">
    <tspan x="0.0 8.0 16.0">nio</tspan>
  </text>
  <text x="0" y="238" id="test-p-0" font-family="Unifont" font-size="16" fill="#000000" font-weight="400" xml:space="preserve">
    <tspan x="0.0 8.0 16.0">sis</tspan>
  </text>
</svg>
